<mxfile host="app.diagrams.net" modified="2023-09-23T17:33:50.386Z" agent="Mozilla/5.0 (X11; Linux x86_64) AppleWebKit/537.36 (KHTML, like Gecko) Chrome/116.0.0.0 Safari/537.36" version="21.8.1" etag="VzXQ2DKMmGKZ1ocsUrmH" type="github">
  <diagram name="Page-1" id="5IJ3RsrNzyPR_E85B5M-">
    <mxGraphModel>
      <root>
        <mxCell id="0" />
        <mxCell id="1" parent="0" />
      </root>
    </mxGraphModel>
  </diagram>
</mxfile>
